# xmcd CD database file
#
# Track frame offsets:
#	150
#	19415
#	33873
#	51847
#	68101
#	89309
#	106021
#	125054
#	142442
#	158342
#	175939
#
# Disc length: 2546 seconds
#
# Revision: 0
# Processed by: cddbd v1.5.2PL0 Copyright (c) Steve Scherf et al.
# Submitted via: jetAudio 7
#
DISCID=9209f00b
DTITLE=許樂  - 鋼琴隨想曲 Piano Caprice
DYEAR=1900
DGENRE=장르 없음
TTITLE0=天黑黑
TTITLE1=小風波
TTITLE2=痴心絶對
TTITLE3=雨夜的浪漫
TTITLE4=幻影
TTITLE5=少女的祈禱
TTITLE6=約定
TTITLE7=勇氣
TTITLE8=傻女
TTITLE9=我和春天有個約會
TTITLE10=大開眼界
EXTD=
EXTT0=
EXTT1=
EXTT2=
EXTT3=
EXTT4=
EXTT5=
EXTT6=
EXTT7=
EXTT8=
EXTT9=
EXTT10=
PLAYORDER=
